<svg xmlns="http://www.w3.org/2000/svg" viewBox="0 0 1024 1024">
  <rect width="1024" height="1024" rx="200" fill="#ff6b35"/>
  <path d="M320 280c0-88.4 71.6-160 160-160s160 71.6 160 160c0 52-25 98-63.6 126.8C615.6 436 580 490.8 580 552v16c0 26.4-21.6 48-48 48h-40c-26.4 0-48-21.6-48-48v-16c0-74 36.4-143 97.2-184.4C567.6 345.2 588 315.2 588 280c0-59.6-48.4-108-108-108s-108 48.4-108 108v36c0 26.4-21.6 48-48 48h0c-26.4 0-48-21.6-48-48v-36zM480 660c0-26.4 21.6-48 48-48h0c26.4 0 48 21.6 48 48v0c0 26.4-21.6 48-48 48h0c-26.4 0-48-21.6-48-48v0z" fill="white"/>
</svg>
